<?xml version="1.0" encoding="UTF-8"?>
<svg width="24px" height="24px" viewBox="0 0 24 24" version="1.1" xmlns="http://www.w3.org/2000/svg" xmlns:xlink="http://www.w3.org/1999/xlink">
    <title>Facebook</title>
    <g stroke="none" stroke-width="1" fill="none" fill-rule="evenodd">
        <path d="M20.9,2 L3.1,2 C2.5,2 2,2.5 2,3.1 L2,20.8 C2,21.4 2.5,21.9 3.1,21.9 L12.7,21.9 L12.7,14.2 L10.1,14.2 L10.1,11.2 L12.7,11.2 L12.7,9.1 C12.7,6.5 14.3,5.1 16.6,5.1 C17.7,5.1 18.6,5.2 18.9,5.2 L18.9,7.9 L17.3,7.9 C16,7.9 15.8,8.5 15.8,9.4 L15.8,11.2 L18.8,11.2 L18.4,14.2 L15.8,14.2 L15.8,22 L20.9,22 C21.5,22 22,21.5 22,20.9 L22,3.1 C22,2.5 21.5,2 20.9,2 Z" fill="#FFFFFF"></path>
    </g>
</svg>
