<?xml version="1.0" encoding="UTF-8"?>
<svg width="24px" height="24px" viewBox="0 0 24 24" version="1.1" xmlns="http://www.w3.org/2000/svg" xmlns:xlink="http://www.w3.org/1999/xlink">
    <title>Twitter</title>
    <g stroke="none" stroke-width="1" fill="none" fill-rule="evenodd">
        <path d="M22,5.8 C21.2,6.1 20.4,6.3 19.6,6.4 C20.5,5.9 21.1,5 21.4,4.1 C20.6,4.6 19.7,4.9 18.8,5.1 C18,4.3 16.9,3.8 15.7,3.8 C13.5,3.8 11.7,5.6 11.7,7.8 C11.7,8.1 11.7,8.4 11.8,8.6 C8.3,8.4 5.1,6.8 3,4.4 C2.6,4.9 2.4,5.6 2.4,6.3 C2.4,7.6 3.1,8.8 4,9.5 C3.3,9.5 2.7,9.3 2,9 L2,9.1 C2,11 3.4,12.6 5.1,13 C4.8,13.1 4.4,13.1 4.1,13.1 C3.8,13.1 3.6,13.1 3.3,13 C3.8,14.6 5.4,15.7 7.1,15.7 C5.7,16.7 3.9,17.4 2,17.4 C1.7,17.4 1.4,17.4 1.1,17.3 C2.8,18.4 4.9,19 7.1,19 C15.7,19 20.3,12 20.3,6 L20.3,5.5 C21.2,5 21.8,4.3 22.2,3.6 L22,5.8 Z" fill="#FFFFFF"></path>
    </g>
</svg>
