<svg width="24" height="24" viewBox="0 0 24 24" fill="none" xmlns="http://www.w3.org/2000/svg">
  <path d="M7.1 6.5C3.8 6.5 1 8.7 1 11.5c0 1.4 0.8 2.7 2.1 3.5l-0.6 2.1 2.4-1.3c0.7 0.2 1.5 0.3 2.3 0.3 0.2 0 0.4 0 0.6 0 0-0.3 0-0.6 0-0.9 0-3.5 3.4-6.3 7.6-6.3 0.5 0 1 0 1.5 0.1C16.1 7.4 11.9 6.5 7.1 6.5z" fill="white"/>
  <circle cx="4.8" cy="10.5" r="0.8" fill="white"/>
  <circle cx="9.3" cy="10.5" r="0.8" fill="white"/>
  <path d="M15.3 11.2c-3.5 0-6.3 2.2-6.3 5s2.8 5 6.3 5c0.7 0 1.4-0.1 2.1-0.3l2.1 1.1-0.5-1.8c1.1-0.7 1.8-1.8 1.8-3C21.6 13.4 18.8 11.2 15.3 11.2z" fill="white"/>
  <circle cx="13.2" cy="15.2" r="0.6" fill="white"/>
  <circle cx="17.4" cy="15.2" r="0.6" fill="white"/>
</svg>
