<?xml version="1.0" encoding="UTF-8"?>
<svg width="24px" height="24px" viewBox="0 0 24 24" version="1.1" xmlns="http://www.w3.org/2000/svg" xmlns:xlink="http://www.w3.org/1999/xlink">
    <title>WhatsApp</title>
    <g stroke="none" stroke-width="1" fill="none" fill-rule="evenodd">
        <path d="M17.6,6.2 C16.2,4.8 14.2,4 12.1,4 C7.8,4 4.4,7.4 4.4,11.7 C4.4,13.1 4.8,14.5 5.5,15.7 L4.3,19.8 L8.5,18.6 C9.7,19.2 10.9,19.5 12.1,19.5 C16.4,19.5 19.8,16.1 19.8,11.8 C19.8,9.6 19.1,7.6 17.6,6.2 Z M12.1,18.2 C11,18.2 9.9,17.9 9,17.3 L8.8,17.2 L6.3,17.9 L7,15.5 L6.8,15.3 C6.2,14.3 5.8,13.1 5.8,11.8 C5.8,8.1 8.6,5.3 12.2,5.3 C14,5.3 15.6,6 16.8,7.2 C18,8.4 18.7,10 18.7,11.8 C18.6,15.4 15.8,18.2 12.1,18.2 Z M15.6,13.4 C15.4,13.3 14.3,12.8 14.2,12.7 C14,12.6 13.9,12.6 13.8,12.8 C13.7,13 13.3,13.4 13.2,13.6 C13.1,13.7 13,13.7 12.8,13.7 C12.6,13.6 11.9,13.4 11.1,12.6 C10.4,12 10,11.3 9.9,11.1 C9.8,10.9 9.9,10.8 10,10.7 C10.1,10.6 10.2,10.5 10.3,10.4 C10.4,10.3 10.4,10.2 10.5,10.1 C10.6,10 10.5,9.9 10.5,9.8 C10.5,9.7 10,8.6 9.9,8.2 C9.8,7.8 9.6,7.8 9.5,7.8 L9.2,7.8 C9.1,7.8 8.9,7.8 8.7,8 C8.5,8.2 8,8.7 8,9.8 C8,10.9 8.8,12 8.9,12.1 C9,12.2 10,13.7 11.5,14.4 C13,15.1 13,14.9 13.4,14.8 C13.8,14.7 14.6,14.3 14.8,13.8 C14.9,13.4 14.9,13 14.8,13 C14.7,13.4 14.7,13.4 15.6,13.4 Z" fill="#FFFFFF"></path>
    </g>
</svg>
